<?xml version="1.0" encoding="UTF-8"?>
<!DOCTYPE svg PUBLIC "-//W3C//DTD SVG 1.1//EN" "http://www.w3.org/Graphics/SVG/1.1/DTD/svg11.dtd">
<svg xmlns="http://www.w3.org/2000/svg" version="1.1" width="500px" height="500px" style="shape-rendering:geometricPrecision; text-rendering:geometricPrecision; image-rendering:optimizeQuality; fill-rule:evenodd; clip-rule:evenodd" xmlns:xlink="http://www.w3.org/1999/xlink">
<g><path style="opacity:0.565" fill="#90c6de" d="M 396.5,145.5 C 376.326,145.17 356.326,145.503 336.5,146.5C 335.957,146.44 335.624,146.107 335.5,145.5C 355.996,144.172 376.329,144.172 396.5,145.5 Z"/></g>
<g><path style="opacity:1" fill="#da3426" d="M 205.5,170.5 C 204.833,171.167 204.167,171.833 203.5,172.5C 204.901,163.769 206.567,155.102 208.5,146.5C 189.821,146.167 171.155,146.5 152.5,147.5C 153.127,148.417 153.461,149.417 153.5,150.5C 151.661,149.492 150.328,147.992 149.5,146C 170.167,145.333 190.833,145.333 211.5,146C 209.436,154.156 207.436,162.322 205.5,170.5 Z"/></g>
<g><path style="opacity:1" fill="#d62f23" d="M 284.5,152.5 C 284.5,150.5 284.5,148.5 284.5,146.5C 271.496,146.333 258.496,146.5 245.5,147C 244.956,147.717 244.289,148.217 243.5,148.5C 243.414,147.504 243.748,146.671 244.5,146C 259.178,145.167 273.845,145.334 288.5,146.5C 287.5,148.813 286.166,150.813 284.5,152.5 Z"/></g>
<g><path style="opacity:1" fill="#fb0302" d="M 203.5,172.5 C 202.656,176.099 202.323,179.766 202.5,183.5C 202.634,185.292 202.301,186.958 201.5,188.5C 199.805,190.732 198.638,193.399 198,196.5C 197.502,199.817 197.335,203.15 197.5,206.5C 197.5,206.833 197.5,207.167 197.5,207.5C 196.5,207.5 195.5,207.5 194.5,207.5C 193.224,210.336 192.558,213.336 192.5,216.5C 191.974,218.23 190.974,219.564 189.5,220.5C 187.857,220.48 186.524,221.147 185.5,222.5C 184.752,224.332 183.752,225.999 182.5,227.5C 182.624,228.107 182.957,228.44 183.5,228.5C 184.6,229.605 185.267,230.938 185.5,232.5C 185.427,234.027 186.094,235.027 187.5,235.5C 188.162,239.466 188.495,243.466 188.5,247.5C 187.883,247.611 187.383,247.944 187,248.5C 186.265,252.813 185.765,257.147 185.5,261.5C 185.212,264.939 184.546,268.272 183.5,271.5C 181.631,273.635 180.964,276.302 181.5,279.5C 180.21,280.058 179.377,281.058 179,282.5C 178.389,287.496 177.889,292.496 177.5,297.5C 176.751,298.531 176.085,299.698 175.5,301C 163.474,301.749 151.474,301.582 139.5,300.5C 139.998,295.848 140.331,291.181 140.5,286.5C 141.931,285.097 143.098,283.431 144,281.5C 144.499,277.179 144.666,272.846 144.5,268.5C 144.5,268.167 144.5,267.833 144.5,267.5C 146.093,266.652 147.26,265.319 148,263.5C 148.699,257.511 149.199,251.511 149.5,245.5C 149.5,245.167 149.5,244.833 149.5,244.5C 150.649,244.209 151.316,243.376 151.5,242C 152.286,238.542 152.62,235.042 152.5,231.5C 153.117,231.389 153.617,231.056 154,230.5C 156.785,220.32 158.618,209.986 159.5,199.5C 159.5,199.167 159.5,198.833 159.5,198.5C 160.931,198.119 161.764,197.119 162,195.5C 162.498,192.183 162.665,188.85 162.5,185.5C 163.712,184.77 164.712,183.77 165.5,182.5C 166.815,177.014 166.815,171.68 165.5,166.5C 165.371,163.13 163.705,161.13 160.5,160.5C 158.141,157.149 155.808,153.815 153.5,150.5C 153.461,149.417 153.127,148.417 152.5,147.5C 171.155,146.5 189.821,146.167 208.5,146.5C 206.567,155.102 204.901,163.769 203.5,172.5 Z"/></g>
<g><path style="opacity:1" fill="#fc0201" d="M 284.5,152.5 C 284.068,153.71 283.401,154.71 282.5,155.5C 281.167,155.5 279.833,155.5 278.5,155.5C 278.072,159.239 276.739,162.573 274.5,165.5C 272.833,165.5 271.167,165.5 269.5,165.5C 269.62,167.199 269.954,168.865 270.5,170.5C 269.453,172.056 268.786,173.723 268.5,175.5C 266.058,175.354 265.391,176.187 266.5,178C 263.363,181.985 260.363,186.152 257.5,190.5C 255.323,189.496 254.989,190.162 256.5,192.5C 255.624,193.251 254.624,193.751 253.5,194C 254.98,196.55 254.313,198.383 251.5,199.5C 250.13,202.418 249.13,205.418 248.5,208.5C 245.821,208.525 244.488,209.858 244.5,212.5C 242.058,212.119 241.391,212.786 242.5,214.5C 240.827,216.523 240.16,218.856 240.5,221.5C 240.5,222.5 240.5,223.5 240.5,224.5C 240.588,229.536 241.088,234.536 242,239.5C 242.278,240.416 242.778,241.082 243.5,241.5C 243.5,241.833 243.5,242.167 243.5,242.5C 243.849,248.84 244.349,255.173 245,261.5C 245.852,262.571 246.685,263.571 247.5,264.5C 248.265,267.096 248.599,269.763 248.5,272.5C 248.426,282.665 249.093,292.665 250.5,302.5C 247.252,302.664 244.252,303.664 241.5,305.5C 240.388,306.265 239.721,307.265 239.5,308.5C 237.517,308.157 236.183,308.824 235.5,310.5C 232.753,310.187 230.086,310.52 227.5,311.5C 222.236,314.809 217.902,317.143 214.5,318.5C 214.664,315.813 214.497,313.146 214,310.5C 213.617,309.944 213.117,309.611 212.5,309.5C 212.665,306.482 212.498,303.482 212,300.5C 211.623,299.058 210.79,298.058 209.5,297.5C 209.5,297.167 209.5,296.833 209.5,296.5C 209.664,293.813 209.497,291.146 209,288.5C 208.617,287.944 208.117,287.611 207.5,287.5C 207.5,287.167 207.5,286.833 207.5,286.5C 207.829,283.772 207.163,281.438 205.5,279.5C 205.5,278.833 205.5,278.167 205.5,277.5C 205.889,274.447 205.223,271.78 203.5,269.5C 203.5,269.167 203.5,268.833 203.5,268.5C 203.663,266.143 203.497,263.81 203,261.5C 202.617,260.944 202.117,260.611 201.5,260.5C 201.5,259.833 201.5,259.167 201.5,258.5C 201.663,256.143 201.497,253.81 201,251.5C 200.617,250.944 200.117,250.611 199.5,250.5C 199.5,250.167 199.5,249.833 199.5,249.5C 199.663,247.143 199.497,244.81 199,242.5C 198.617,241.944 198.117,241.611 197.5,241.5C 197.5,241.167 197.5,240.833 197.5,240.5C 197.356,236.489 197.023,232.489 196.5,228.5C 197.22,224.735 198.22,221.069 199.5,217.5C 201.74,216.432 203.574,214.766 205,212.5C 205.333,212.833 205.667,213.167 206,213.5C 207.881,209.693 209.047,205.693 209.5,201.5C 210.906,201.027 211.573,200.027 211.5,198.5C 212.906,198.027 213.573,197.027 213.5,195.5C 214.11,193.566 215.11,191.899 216.5,190.5C 217.906,190.027 218.573,189.027 218.5,187.5C 219.34,185.147 220.674,183.147 222.5,181.5C 224.408,180.514 225.408,178.848 225.5,176.5C 229.832,174.255 232.166,170.588 232.5,165.5C 235.325,164.522 236.658,162.522 236.5,159.5C 238.759,158.656 239.759,156.989 239.5,154.5C 240.906,154.027 241.573,153.027 241.5,151.5C 242.906,151.027 243.573,150.027 243.5,148.5C 244.289,148.217 244.956,147.717 245.5,147C 258.496,146.5 271.496,146.333 284.5,146.5C 284.5,148.5 284.5,150.5 284.5,152.5 Z"/></g>
<g><path style="opacity:0.537" fill="#f58881" d="M 243.5,148.5 C 243.573,150.027 242.906,151.027 241.5,151.5C 241.427,149.973 242.094,148.973 243.5,148.5 Z"/></g>
<g><path style="opacity:0.451" fill="#fa9a95" d="M 241.5,151.5 C 241.573,153.027 240.906,154.027 239.5,154.5C 239.427,152.973 240.094,151.973 241.5,151.5 Z"/></g>
<g><path style="opacity:1" fill="#e7554b" d="M 239.5,154.5 C 239.759,156.989 238.759,158.656 236.5,159.5C 237.11,157.566 238.11,155.899 239.5,154.5 Z"/></g>
<g><path style="opacity:1" fill="#1e91c7" d="M 396.5,145.5 C 390.135,177.994 383.135,210.328 375.5,242.5C 373.827,243.343 372.66,244.676 372,246.5C 371.695,254.688 370.362,262.688 368,270.5C 367.667,269.833 367.333,269.167 367,268.5C 366.14,278.655 364.307,288.655 361.5,298.5C 362.127,299.417 362.461,300.417 362.5,301.5C 346.337,302.167 330.003,302.5 313.5,302.5C 296.412,302.653 279.412,302.153 262.5,301C 259.112,298.724 257.446,295.558 257.5,291.5C 260.011,277.929 263.011,264.596 266.5,251.5C 267.85,250.517 268.85,249.184 269.5,247.5C 270.327,243.541 270.827,239.541 271,235.5C 271.667,234.833 272.333,234.167 273,233.5C 273.718,234.451 274.551,234.617 275.5,234C 276.693,231.973 278.36,230.473 280.5,229.5C 283.701,231.192 287.035,232.526 290.5,233.5C 295.799,236.444 301.133,239.444 306.5,242.5C 306.833,243.667 307.167,244.833 307.5,246C 306.464,252.031 305.131,257.864 303.5,263.5C 302.883,263.611 302.383,263.944 302,264.5C 301.503,267.146 301.336,269.813 301.5,272.5C 311.015,272.827 320.348,272.494 329.5,271.5C 330.233,265.249 331.566,259.249 333.5,253.5C 335.735,250.983 337.235,247.983 338,244.5C 339.016,235.71 340.682,227.043 343,218.5C 343.333,218.833 343.667,219.167 344,219.5C 344.333,215.5 344.667,211.5 345,207.5C 345.915,208.328 346.581,209.328 347,210.5C 347.326,206.47 347.326,202.47 347,198.5C 347.333,198.833 347.667,199.167 348,199.5C 347.652,195.113 348.986,191.447 352,188.5C 352.667,180.167 352.667,171.833 352,163.5C 350.494,161.826 348.661,160.826 346.5,160.5C 342.779,156.112 339.445,151.445 336.5,146.5C 356.326,145.503 376.326,145.17 396.5,145.5 Z"/></g>
<g><path style="opacity:1" fill="#ed6b5e" d="M 160.5,160.5 C 163.705,161.13 165.371,163.13 165.5,166.5C 163.844,164.54 162.177,162.54 160.5,160.5 Z"/></g>
<g><path style="opacity:1" fill="#eb6453" d="M 236.5,159.5 C 236.658,162.522 235.325,164.522 232.5,165.5C 233.34,163.147 234.674,161.147 236.5,159.5 Z"/></g>
<g><path style="opacity:1" fill="#ed5447" d="M 232.5,165.5 C 232.166,170.588 229.832,174.255 225.5,176.5C 227.446,172.561 229.779,168.894 232.5,165.5 Z"/></g>
<g><path style="opacity:1" fill="#ed6a5b" d="M 205.5,170.5 C 204.943,175.052 203.943,179.385 202.5,183.5C 202.323,179.766 202.656,176.099 203.5,172.5C 204.167,171.833 204.833,171.167 205.5,170.5 Z"/></g>
<g><path style="opacity:1" fill="#eb382b" d="M 165.5,166.5 C 166.815,171.68 166.815,177.014 165.5,182.5C 164.712,183.77 163.712,184.77 162.5,185.5C 163.662,179.188 164.662,172.855 165.5,166.5 Z"/></g>
<g><path style="opacity:1" fill="#ec6257" d="M 225.5,176.5 C 225.408,178.848 224.408,180.514 222.5,181.5C 222.75,179.326 223.75,177.659 225.5,176.5 Z"/></g>
<g><path style="opacity:1" fill="#ee503b" d="M 282.5,155.5 C 271.901,173.712 260.568,191.379 248.5,208.5C 249.13,205.418 250.13,202.418 251.5,199.5C 254.313,198.383 254.98,196.55 253.5,194C 254.624,193.751 255.624,193.251 256.5,192.5C 254.989,190.162 255.323,189.496 257.5,190.5C 260.363,186.152 263.363,181.985 266.5,178C 265.391,176.187 266.058,175.354 268.5,175.5C 268.786,173.723 269.453,172.056 270.5,170.5C 269.954,168.865 269.62,167.199 269.5,165.5C 271.167,165.5 272.833,165.5 274.5,165.5C 276.739,162.573 278.072,159.239 278.5,155.5C 279.833,155.5 281.167,155.5 282.5,155.5 Z"/></g>
<g><path style="opacity:0.482" fill="#f39891" d="M 218.5,187.5 C 218.573,189.027 217.906,190.027 216.5,190.5C 216.427,188.973 217.094,187.973 218.5,187.5 Z"/></g>
<g><path style="opacity:1" fill="#ea5649" d="M 162.5,185.5 C 162.665,188.85 162.498,192.183 162,195.5C 161.764,197.119 160.931,198.119 159.5,198.5C 160.057,193.948 161.057,189.615 162.5,185.5 Z"/></g>
<g><path style="opacity:1" fill="#ee624e" d="M 201.5,188.5 C 200.767,194.751 199.434,200.751 197.5,206.5C 197.335,203.15 197.502,199.817 198,196.5C 198.638,193.399 199.805,190.732 201.5,188.5 Z"/></g>
<g><path style="opacity:0.612" fill="#f97d7e" d="M 213.5,195.5 C 213.573,197.027 212.906,198.027 211.5,198.5C 211.427,196.973 212.094,195.973 213.5,195.5 Z"/></g>
<g><path style="opacity:0.522" fill="#f88982" d="M 211.5,198.5 C 211.573,200.027 210.906,201.027 209.5,201.5C 209.427,199.973 210.094,198.973 211.5,198.5 Z"/></g>
<g><path style="opacity:1" fill="#3f98c2" d="M 346.5,160.5 C 348.661,160.826 350.494,161.826 352,163.5C 352.667,171.833 352.667,180.167 352,188.5C 348.986,191.447 347.652,195.113 348,199.5C 347.667,199.167 347.333,198.833 347,198.5C 347.326,202.47 347.326,206.47 347,210.5C 346.581,209.328 345.915,208.328 345,207.5C 344.667,211.5 344.333,215.5 344,219.5C 343.667,219.167 343.333,218.833 343,218.5C 340.682,227.043 339.016,235.71 338,244.5C 337.235,247.983 335.735,250.983 333.5,253.5C 339.259,225.297 345.259,197.13 351.5,169C 350.863,165.537 349.197,162.704 346.5,160.5 Z"/></g>
<g><path style="opacity:1" fill="#ef513e" d="M 197.5,207.5 C 197.072,211.244 195.405,214.244 192.5,216.5C 192.558,213.336 193.224,210.336 194.5,207.5C 195.5,207.5 196.5,207.5 197.5,207.5 Z"/></g>
<g><path style="opacity:1" fill="#ee402f" d="M 209.5,201.5 C 209.047,205.693 207.881,209.693 206,213.5C 205.667,213.167 205.333,212.833 205,212.5C 203.574,214.766 201.74,216.432 199.5,217.5C 202.336,211.822 205.669,206.489 209.5,201.5 Z"/></g>
<g><path style="opacity:1" fill="#f0503d" d="M 248.5,208.5 C 246.582,213.343 243.916,217.677 240.5,221.5C 240.16,218.856 240.827,216.523 242.5,214.5C 241.391,212.786 242.058,212.119 244.5,212.5C 244.488,209.858 245.821,208.525 248.5,208.5 Z"/></g>
<g><path style="opacity:1" fill="#e45144" d="M 159.5,199.5 C 158.618,209.986 156.785,220.32 154,230.5C 153.617,231.056 153.117,231.389 152.5,231.5C 154.233,220.583 156.566,209.917 159.5,199.5 Z"/></g>
<g><path style="opacity:1" fill="#ed5a49" d="M 189.5,220.5 C 187.975,223.563 185.975,226.23 183.5,228.5C 182.957,228.44 182.624,228.107 182.5,227.5C 183.752,225.999 184.752,224.332 185.5,222.5C 186.524,221.147 187.857,220.48 189.5,220.5 Z"/></g>
<g><path style="opacity:0.914" fill="#e28482" d="M 195.5,223.5 C 195.5,226.167 195.5,228.833 195.5,231.5C 194.717,229.657 194.05,227.657 193.5,225.5C 193.855,224.478 194.522,223.811 195.5,223.5 Z"/></g>
<g><path style="opacity:1" fill="#e54737" d="M 199.5,217.5 C 198.22,221.069 197.22,224.735 196.5,228.5C 197.023,232.489 197.356,236.489 197.5,240.5C 196.343,237.727 195.676,234.727 195.5,231.5C 195.5,228.833 195.5,226.167 195.5,223.5C 196.34,221.147 197.674,219.147 199.5,217.5 Z"/></g>
<g><path style="opacity:1" fill="#ea574f" d="M 240.5,224.5 C 242.02,229.948 243.02,235.614 243.5,241.5C 242.778,241.082 242.278,240.416 242,239.5C 241.088,234.536 240.588,229.536 240.5,224.5 Z"/></g>
<g><path style="opacity:0.529" fill="#fb837e" d="M 185.5,232.5 C 186.906,232.973 187.573,233.973 187.5,235.5C 186.094,235.027 185.427,234.027 185.5,232.5 Z"/></g>
<g><path style="opacity:1" fill="#ec6656" d="M 187.5,235.5 C 190.938,239.163 191.271,243.163 188.5,247.5C 188.495,243.466 188.162,239.466 187.5,235.5 Z"/></g>
<g><path style="opacity:1" fill="#e34c40" d="M 152.5,231.5 C 152.62,235.042 152.286,238.542 151.5,242C 151.316,243.376 150.649,244.209 149.5,244.5C 150.057,239.948 151.057,235.615 152.5,231.5 Z"/></g>
<g><path style="opacity:1" fill="#ea786f" d="M 197.5,241.5 C 198.117,241.611 198.617,241.944 199,242.5C 199.497,244.81 199.663,247.143 199.5,249.5C 198.232,247.095 197.565,244.428 197.5,241.5 Z"/></g>
<g><path style="opacity:1" fill="#489bc5" d="M 290.5,233.5 C 287.035,232.526 283.701,231.192 280.5,229.5C 278.36,230.473 276.693,231.973 275.5,234C 274.551,234.617 273.718,234.451 273,233.5C 272.333,234.167 271.667,234.833 271,235.5C 270.827,239.541 270.327,243.541 269.5,247.5C 268.85,249.184 267.85,250.517 266.5,251.5C 267.748,241.511 270.081,231.844 273.5,222.5C 279.402,225.942 285.068,229.608 290.5,233.5 Z"/></g>
<g><path style="opacity:1" fill="#e76961" d="M 199.5,250.5 C 200.117,250.611 200.617,250.944 201,251.5C 201.497,253.81 201.663,256.143 201.5,258.5C 200.232,256.095 199.565,253.428 199.5,250.5 Z"/></g>
<g><path style="opacity:0.486" fill="#ef7b75" d="M 188.5,247.5 C 187.99,252.391 186.99,257.058 185.5,261.5C 185.765,257.147 186.265,252.813 187,248.5C 187.383,247.944 187.883,247.611 188.5,247.5 Z"/></g>
<g><path style="opacity:1" fill="#e4473a" d="M 243.5,242.5 C 245.246,249.631 246.579,256.965 247.5,264.5C 246.685,263.571 245.852,262.571 245,261.5C 244.349,255.173 243.849,248.84 243.5,242.5 Z"/></g>
<g><path style="opacity:1" fill="#ea4131" d="M 149.5,245.5 C 149.199,251.511 148.699,257.511 148,263.5C 147.26,265.319 146.093,266.652 144.5,267.5C 145.676,259.939 147.343,252.605 149.5,245.5 Z"/></g>
<g><path style="opacity:1" fill="#e76e63" d="M 201.5,260.5 C 202.117,260.611 202.617,260.944 203,261.5C 203.497,263.81 203.663,266.143 203.5,268.5C 202.469,266.039 201.802,263.373 201.5,260.5 Z"/></g>
<g><path style="opacity:0.543" fill="#80c4e5" d="M 303.5,263.5 C 303.167,266.167 302.833,268.833 302.5,271.5C 311.5,271.5 320.5,271.5 329.5,271.5C 320.348,272.494 311.015,272.827 301.5,272.5C 301.336,269.813 301.503,267.146 302,264.5C 302.383,263.944 302.883,263.611 303.5,263.5 Z"/></g>
<g><path style="opacity:1" fill="#e96c5a" d="M 183.5,271.5 C 183.198,274.373 182.531,277.039 181.5,279.5C 180.964,276.302 181.631,273.635 183.5,271.5 Z"/></g>
<g><path style="opacity:0.988" fill="#e56f66" d="M 203.5,269.5 C 205.223,271.78 205.889,274.447 205.5,277.5C 204.469,275.039 203.802,272.373 203.5,269.5 Z"/></g>
<g><path style="opacity:1" fill="#53a0c5" d="M 375.5,242.5 C 371.785,262.421 367.451,282.088 362.5,301.5C 362.461,300.417 362.127,299.417 361.5,298.5C 364.307,288.655 366.14,278.655 367,268.5C 367.333,269.167 367.667,269.833 368,270.5C 370.362,262.688 371.695,254.688 372,246.5C 372.66,244.676 373.827,243.343 375.5,242.5 Z"/></g>
<g><path style="opacity:1" fill="#e93c2f" d="M 144.5,268.5 C 144.666,272.846 144.499,277.179 144,281.5C 143.098,283.431 141.931,285.097 140.5,286.5C 141.215,280.245 142.549,274.245 144.5,268.5 Z"/></g>
<g><path style="opacity:0.843" fill="#e97a75" d="M 205.5,279.5 C 207.163,281.438 207.829,283.772 207.5,286.5C 206.388,284.401 205.721,282.067 205.5,279.5 Z"/></g>
<g><path style="opacity:1" fill="#e74d3d" d="M 248.5,272.5 C 250.524,281.464 252.19,290.631 253.5,300C 249.734,304.062 245.067,306.895 239.5,308.5C 239.721,307.265 240.388,306.265 241.5,305.5C 244.252,303.664 247.252,302.664 250.5,302.5C 249.093,292.665 248.426,282.665 248.5,272.5 Z"/></g>
<g><path style="opacity:1" fill="#e85346" d="M 181.5,279.5 C 180.767,285.751 179.434,291.751 177.5,297.5C 177.889,292.496 178.389,287.496 179,282.5C 179.377,281.058 180.21,280.058 181.5,279.5 Z"/></g>
<g><path style="opacity:1" fill="#ed7668" d="M 207.5,287.5 C 208.117,287.611 208.617,287.944 209,288.5C 209.497,291.146 209.664,293.813 209.5,296.5C 208.343,293.727 207.676,290.727 207.5,287.5 Z"/></g>
<g><path style="opacity:1" fill="#d62c24" d="M 140.5,286.5 C 140.331,291.181 139.998,295.848 139.5,300.5C 151.474,301.582 163.474,301.749 175.5,301C 176.085,299.698 176.751,298.531 177.5,297.5C 177.634,299.292 177.301,300.958 176.5,302.5C 163.124,303.148 150.124,302.481 137.5,300.5C 137.898,295.588 138.898,290.921 140.5,286.5 Z"/></g>
<g><path style="opacity:0.243" fill="#ffafb0" d="M 137.5,300.5 C 150.124,302.481 163.124,303.148 176.5,302.5C 163.344,303.496 150.01,303.829 136.5,303.5C 136.263,302.209 136.596,301.209 137.5,300.5 Z"/></g>
<g><path style="opacity:1" fill="#e75646" d="M 209.5,297.5 C 210.79,298.058 211.623,299.058 212,300.5C 212.498,303.482 212.665,306.482 212.5,309.5C 211.008,305.736 210.008,301.736 209.5,297.5 Z"/></g>
<g><path style="opacity:0.949" fill="#f37b71" d="M 239.5,308.5 C 238.486,309.674 237.153,310.34 235.5,310.5C 236.183,308.824 237.517,308.157 239.5,308.5 Z"/></g>
<g><path style="opacity:1" fill="#eb5847" d="M 212.5,309.5 C 213.117,309.611 213.617,309.944 214,310.5C 214.497,313.146 214.664,315.813 214.5,318.5C 217.902,317.143 222.236,314.809 227.5,311.5C 230.086,310.52 232.753,310.187 235.5,310.5C 228.804,313.93 221.971,317.264 215,320.5C 213.347,317.074 212.513,313.407 212.5,309.5 Z"/></g>
</svg>
